# xmcd
#
# Track frame offsets:
#	150
#	18454
#	31034
#	51968
#	64725
#	77680
#	87480
#	103970
#	120864
#
# Disc length: 1802 seconds
#
# Revision: 1
# Processed by: cddbd v1.5.2PL0 Copyright (c) Steve Scherf et al.
# Submitted via: audiograbber 1.83.01
#
DISCID=6a070809
DTITLE=Various Artist - CD Tex Vol 58 Sept 2007
DYEAR=2007
DGENRE=country
TTITLE0=Big John Mills - I'm Going Coastal
TTITLE1=The Pear Ratz - Holier Than Thou
TTITLE2=Drew Kenney - Good Things
TTITLE3=Wild Horses - Viva Viagra
TTITLE4=Derek Sholl - Red Blooded Country Girl
TTITLE5=Johnny Bush - Spurrin' The Chrome Off The Barstool
TTITLE6=Jerry Lee Surber - Educated Redneck
TTITLE7=Keith Davis - Make It Up To You
TTITLE8=Leslie Tom - I'll Take The Fifth
EXTD=
EXTT0=
EXTT1=
EXTT2=
EXTT3=
EXTT4=
EXTT5=
EXTT6=
EXTT7=
EXTT8=
PLAYORDER=
